{"buffers":[{"uri":"DamagedHelmet.bin","byteLength":322408}],"asset":{"version":"2.0","generator":"gltfpack 0.16"},"extensionsUsed":["KHR_mesh_quantization","KHR_texture_transform","KHR_texture_basisu"],"extensionsRequired":["KHR_mesh_quantization","KHR_texture_basisu"],"bufferViews":[{"buffer":0,"byteOffset":0,"byteLength":57424,"byteStride":4,"target":34962},{"buffer":0,"byteOffset":57424,"byteLength":114848,"byteStride":8,"target":34962},{"buffer":0,"byteOffset":172272,"byteLength":57424,"byteStride":4,"target":34962},{"buffer":0,"byteOffset":229696,"byteLength":92712,"target":34963}],"accessors":[{"bufferView":0,"byteOffset":0,"componentType":5120,"count":14356,"type":"VEC3","normalized":true},{"bufferView":1,"byteOffset":0,"componentType":5123,"count":14356,"type":"VEC3","min":[0,0,0],"max":[15482,14761,16383]},{"bufferView":2,"byteOffset":0,"componentType":5123,"count":14356,"type":"VEC2"},{"bufferView":3,"byteOffset":0,"componentType":5123,"count":46356,"type":"SCALAR"}],"images":[{"uri":"Default_albedo.ktx2"},{"uri":"Default_metalRoughness.ktx2"},{"uri":"Default_emissive.ktx2"},{"uri":"Default_AO.ktx2"},{"uri":"Default_normal.ktx2"}],"textures":[{"extensions":{"KHR_texture_basisu":{"source":0}}},{"extensions":{"KHR_texture_basisu":{"source":1}}},{"extensions":{"KHR_texture_basisu":{"source":2}}},{"extensions":{"KHR_texture_basisu":{"source":3}}},{"extensions":{"KHR_texture_basisu":{"source":4}}}],"materials":[{"name":"Material_MR","pbrMetallicRoughness":{"baseColorTexture":{"index":0,"texCoord":0,"extensions":{"KHR_texture_transform":{"offset":[0.00244864007,1.00055313],"scale":[0.000243596427,0.000243739414]}}},"metallicRoughnessTexture":{"index":1,"texCoord":0,"extensions":{"KHR_texture_transform":{"offset":[0.00244864007,1.00055313],"scale":[0.000243596427,0.000243739414]}}}},"normalTexture":{"index":4,"texCoord":0,"extensions":{"KHR_texture_transform":{"offset":[0.00244864007,1.00055313],"scale":[0.000243596427,0.000243739414]}}},"occlusionTexture":{"index":3,"texCoord":0,"extensions":{"KHR_texture_transform":{"offset":[0.00244864007,1.00055313],"scale":[0.000243596427,0.000243739414]}}},"emissiveTexture":{"index":2,"texCoord":0,"extensions":{"KHR_texture_transform":{"offset":[0.00244864007,1.00055313],"scale":[0.000243596427,0.000243739414]}}},"emissiveFactor":[1,1,1]}],"meshes":[{"primitives":[{"attributes":{"NORMAL":0,"POSITION":1,"TEXCOORD_0":2},"mode":4,"indices":3,"material":0}]}],"nodes":[{"mesh":0,"translation":[-0.947458565,-0.900974095,-1.18715513],"scale":[0.000122077778,0.000122077778,0.000122077778]}],"scenes":[{"name":"Scene","nodes":[0]}],"scene":0}